<svg width="189" height="61" viewBox="0 0 189 61" fill="none" xmlns="http://www.w3.org/2000/svg">
<path d="M39.8489 44.9453C32.5297 44.9453 26.837 48.4026 26.837 52.8477C26.837 57.2928 32.5297 60.7502 39.8489 60.7502C47.1681 60.7502 52.8609 57.2928 52.8609 52.8477C52.8609 48.4026 47.1681 44.9453 39.8489 44.9453ZM117.107 0H110.601V9.63111H134.999L117.107 0ZM0.81317 54.3294H17.0781C17.0781 54.3294 17.8913 39.5123 41.4754 39.5123C58.9602 39.5123 61.8065 54.3294 61.8065 54.3294H102.469V0H0L0.81317 54.3294ZM154.516 44.9453C147.197 44.9453 141.505 48.4026 141.505 52.8477C141.505 57.2928 147.197 60.7502 154.516 60.7502C161.836 60.7502 167.528 57.2928 167.528 52.8477C167.528 48.4026 161.429 44.9453 154.516 44.9453ZM139.065 12.3476H110.601V54.3294H134.999C134.999 54.3294 131.746 41.9818 155.33 41.9818C173.221 41.9818 172.814 54.3294 172.814 54.3294H187.86L188.673 35.808L139.065 12.3476ZM134.999 44.4513H118.734V39.5123H134.999V44.4513ZM133.372 35.5611L117.107 29.6342V15.8049H133.372L175.661 35.5611H133.372Z" fill="white" fill-opacity="0.4"/>
</svg>
